<!--?xml version="1.0" encoding="utf-8"?-->
<!-- Generator: Adobe Illustrator 18.0.0, SVG Export Plug-In . SVG Version: 6.00 Build 0)  -->

<svg version="1.1" id="_x32_" xmlns="http://www.w3.org/2000/svg" xmlns:xlink="http://www.w3.org/1999/xlink" x="0px" y="0px" viewBox="0 0 512 512" style="width: 48px; height: 48px; opacity: 1;" xml:space="preserve">
<style type="text/css">
	.st0{fill:#4B4B4B;}
</style>
<g>
	<path class="st0" d="M503.467,21.068H8.533C3.84,21.068,0,24.908,0,29.601v372.797c0,4.693,3.84,8.533,8.533,8.533h494.934
		c4.693,0,8.533-3.84,8.533-8.533V29.601C512,24.908,508.16,21.068,503.467,21.068z M455.463,77.61v276.788H56.537V77.609h398.348
		L455.463,77.61z" style="fill: rgb(255, 255, 255);"></path>
	<path class="st0" d="M399.453,443.172c0.002-0.081,0.014-0.159,0.014-0.24H112.533c0,26.51,21.49,48,48,48h190.934
		c25.973,0,47.074-20.644,47.92-46.412c0.016-0.452,0.076-0.894,0.08-1.348H399.453z" style="fill: rgb(255, 255, 255);"></path>
	<polygon class="st0" points="330.881,216.207 330.762,216.137 331,216 253.797,171.427 215.24,149.028 215.24,149.166 215,149.027 
		215,282.972 292.092,238.463 	" style="fill: rgb(255, 255, 255);"></polygon>
</g>
</svg>
