<!--?xml version="1.0" encoding="utf-8"?-->
<!-- Generator: Adobe Illustrator 18.1.1, SVG Export Plug-In . SVG Version: 6.00 Build 0)  -->

<svg version="1.1" id="_x32_" xmlns="http://www.w3.org/2000/svg" xmlns:xlink="http://www.w3.org/1999/xlink" x="0px" y="0px" viewBox="0 0 512 512" style="width: 48px; height: 48px; opacity: 1;" xml:space="preserve">
<style type="text/css">
	.st0{fill:#4B4B4B;}
</style>
<g>
	<path class="st0" d="M168.369,214.965c-21.669-8.834-40.031-1.122-48.161,13.09c-4.924,8.711-3.714,17.716-0.735,23.084
		l-0.154,0.287c-8.533,1.276-17.875,6.421-23.251,17.282c-8.695,17.832-1.083,36.468,18.806,46.772
		c19.975,10.359,42.588,6.235,52.157-12.741c5.84-11.465,3.659-22.527-1.168-30.078l0.155-0.263
		c7.04-0.944,16.602-5.547,21.661-14.784C196.022,242.414,190.165,223.877,168.369,214.965z M144.84,290.911
		c-4.228,8.348-13.063,11.225-21.495,7.063c-8.413-4.169-11.036-12.555-6.963-20.686c4.034-7.999,12.49-11.024,21.042-7.071
		C146.019,274.178,149.029,282.734,144.84,290.911z M165.108,247.511c-3.388,6.112-11.228,8.998-18.597,5.702
		c-7.353-3.311-9.264-10.475-5.93-16.439c3.446-6.073,11.012-9.006,18.408-5.857C166.396,234.089,168.577,241.237,165.108,247.511z" style="fill: rgb(255, 255, 255);"></path>
	<path class="st0" d="M440.983,179.046c31.455-10.868,50.787-74.986,34.139-101.954c0.619,17.314-30.526,30.427-41.388,11.813
		C426.709,58.742,485.048,29.437,512,25.616C499.197,6.345,428.821-2.11,403.33,32.725c-17.166,23.449-11.929,38.797-34.704,30.109
		c-24.911-9.53-3.18-43.817,16.756-50.045c-78.58-14.536-58.477,66.013-87.972,58.269c-29.51-7.736-1.884-32.708,1.327-35.919
		c-52.969-8.455-40.332,46.618-81.249,57.225c-24.248,9.089-38.34,10.876-51.398,13.143
		C95.966,117.715,34.607,167.009,10.416,239.25c-35.114,104.878,21.433,218.336,126.3,253.459
		c104.87,35.106,218.34-21.422,253.462-126.3c4.658-13.909,7.682-27.966,9.198-41.976c1.122-10.389,5.678-22.876,9.64-32.112
		c12.2-28.531,46.796-38.727,55.212-52.095c18.83-29.931,3.597-48.738,3.597-48.738s-7.001,17.746-26.882,19.642
		C421.047,213.032,409.535,189.916,440.983,179.046z M237.449,309.81c-30.686,60.682-98.644,74.507-142.105,48.745
		C52.408,332.949,44.246,275.4,70.766,229.68c26.708-46.046,74.263-68.257,120.877-51.167
		C238.35,194.944,268.288,248.942,237.449,309.81z M365.594,277.86c-0.418-14.56-3.404-31.541-10.429-48.692
		c-6.955-17.15-17.986-34.379-32.863-49.24c-14.854-14.869-32.086-25.901-49.228-32.864c-17.156-7.016-34.129-10.003-48.692-10.412
		v-7.651c15.318-0.433,33.574,1.292,52.528,7.76c18.911,6.374,38.383,17.638,54.644,33.931c16.292,16.261,27.54,35.733,33.923,54.64
		c6.468,18.954,8.193,37.219,7.752,52.529H365.594z" style="fill: rgb(255, 255, 255);"></path>
</g>
</svg>
