<?xml version="1.0" encoding="utf-8"?>
<!-- Generator: Adobe Illustrator 26.4.1, SVG Export Plug-In . SVG Version: 6.00 Build 0)  -->
<svg version="1.1" id="_x32_" xmlns="http://www.w3.org/2000/svg" xmlns:xlink="http://www.w3.org/1999/xlink" x="0px" y="0px"
	 viewBox="0 0 512 512" style="enable-background:new 0 0 512 512;" xml:space="preserve">
<style type="text/css">
	.st0{fill:#D600FF;}
</style>
<g>
	<path class="st0" d="M451.2,2c-35.1-1.2-64.5,26.2-65.7,61.3c-1.2,35.1,26.2,64.5,61.3,65.7c35.1,1.2,64.5-26.3,65.7-61.3
		C513.7,32.7,486.2,3.2,451.2,2z"/>
	<path class="st0" d="M491,174.3c-11.7-17.5-43.3-22.6-60-10c-8.4,6.3-11.6,15.9-13,22c-4.8,21.5-8.9,38-9,40
		c-0.9,18.2-8.7,57.8-37,149c-25.7,1-51.3,2-77,3c-15.8,2.5-32.8,4.6-51,6c-20.7,1.6-40.1,2.2-58,2c-50,3-100,6-150,9
		c-1.8,4.7-13.5,36.8,2,54c2,2.2,8.8,9,45,12c22.6,1.9,41.3,1.1,54,0c10.3-0.8,25.1-1.8,43-3c20.6-1.3,30.9-2,36-2
		c20.9,0,28.2,2.2,49,1c8.8-0.5,13.6-1.3,20-2c27.4-3.1,36.4-0.4,92,0c61.4,0.4,32.8-3,51.7-2.1c8.3,0.4,18.7,1.3,28.3-4.9
		c7.4-4.8,11.1-11.8,13-16c9.8-21.5,8.5-39.1,11-76c0.4-6.3,1.6-17.9,4-41c2.6-25.4,5.2-46.1,7-60c0.3-5.3,0.8-13.7,2-24
		c1.8-15.8,3.2-20.1,3-29C496.8,192.6,496.6,182.6,491,174.3z"/>
	<path class="st0" d="M175,393.3"/>
	<path class="st0" d="M384,439.3"/>
	<path class="st0" d="M660,419.3"/>
</g>
<path class="st0" d="M19,501.3c316.4-23.3,476.1-24.7,479-4c0.6,4.1-5.1,9.1-17,15"/>
<path class="st0" d="M232,273.3"/>
<path class="st0" d="M106,274.3"/>
<path class="st0" d="M773,331.3"/>
<path class="st0" d="M668,308.3"/>
<path class="st0" d="M623,279.3"/>
<path class="st0" d="M646,189.3"/>
<path class="st0" d="M593,263.3"/>
</svg>
