<?xml version="1.0" encoding="utf-8"?>
<!-- Generator: Adobe Illustrator 26.4.1, SVG Export Plug-In . SVG Version: 6.00 Build 0)  -->
<svg version="1.1" id="_x32_" xmlns="http://www.w3.org/2000/svg" xmlns:xlink="http://www.w3.org/1999/xlink" x="0px" y="0px"
	 viewBox="0 0 512 512" style="enable-background:new 0 0 512 512;" xml:space="preserve">
<style type="text/css">
	.st0{fill:#D600FF;}
</style>
<g>
	<path class="st0" d="M123.5,369.7H89.8c-16.6,0-31.5-6.7-42.5-17.6c-10.9-10.9-17.6-25.9-17.6-42.5v-61.8H0v61.8
		c0,49.5,40.2,89.7,89.8,89.8h40.5v-15.2C126.4,380.4,124,375.1,123.5,369.7z"/>
	<path class="st0" d="M85.9,165.1c21.6,0,39.1-17.5,39.1-39.2c0-21.6-17.5-39.2-39.1-39.2c-21.6,0-39.2,17.5-39.2,39.2
		C46.8,147.6,64.3,165.1,85.9,165.1z"/>
	<path class="st0" d="M145.3,347.7c17,0,34.1,0.4,51.1-0.2c1.9-0.3,3.9-0.4,5.9-0.3c0.3,0,0.7,0,1,0l0.7-24
		c0-13.7-11.1-24.8-24.8-24.8h-54.9v-81.8c0-21.2-17.1-38.3-38.3-38.3c-21.1,0-38.3,17.2-38.3,38.3v93.1c0,21.2,17.1,38.3,38.3,38.3
		c2,0,35.8-0.1,55.7-0.2C142.8,347.8,144.1,347.7,145.3,347.7z"/>
	<path class="st0" d="M482.3,247.8v61.8c0,16.6-6.7,31.5-17.6,42.5c-10.9,10.9-25.9,17.6-42.5,17.6h-40.5v29.7h40.5
		c49.5,0,89.7-40.2,89.8-89.8v-61.8L482.3,247.8L482.3,247.8z"/>
	<path class="st0" d="M426.1,165.1c21.6,0,39.2-17.5,39.2-39.2c0-21.6-17.5-39.2-39.2-39.2c-21.6,0-39.1,17.5-39.1,39.2
		C386.9,147.6,404.4,165.1,426.1,165.1z"/>
	<path class="st0" d="M426.1,178.4c-21.2,0-38.3,17.2-38.3,38.3v81.8h-54.9c-13.7,0-24.8,11.1-24.8,24.8l0.7,23.9c0,0,0.1,0,0.1,0
		h40.9c2.2,0,4.3,0.4,6.3,1.1l0-0.2c0,0,67.1,0.2,70,0.2c21.2,0,38.3-17.2,38.3-38.3v-93.1C464.4,195.5,447.2,178.4,426.1,178.4z"/>
	<path class="st0" d="M234.5,323.3L234.5,323.3c-0.1,13.2-10.9,23.8-24.1,23.6l-75.8-0.8c-13.2-0.1-23.8-10.9-23.6-24.1v0
		c0.1-13.2,10.9-23.8,24.1-23.6l75.8,0.8C224.1,299.4,234.6,310.2,234.5,323.3z"/>
	
		<rect x="240.5" y="252.1" transform="matrix(6.506494e-03 -1 1 6.506494e-03 -132.5951 636.2801)" class="st0" width="26.9" height="265.6"/>
	
		<rect x="120.9" y="370.4" transform="matrix(0.9999 -1.062339e-02 1.062339e-02 0.9999 -4.0629 2.7172)" class="st0" width="265.6" height="26.9"/>
	<path class="st0" d="M403.8,323.4L403.8,323.4c-0.1,13.2-10.9,23.8-24.1,23.6l-75.8-0.8c-13.2-0.1-23.8-10.9-23.6-24.1v0
		c0.1-13.2,10.9-23.8,24.1-23.6l75.8,0.8C393.4,299.4,403.9,310.2,403.8,323.4z"/>
</g>
</svg>
