<?xml version="1.0" encoding="UTF-8"?><svg id="_2" xmlns="http://www.w3.org/2000/svg" viewBox="0 0 650.12 571.13"><defs><style>.cls-1{fill:#d600ff;}</style></defs><g><path class="cls-1" d="M389.28,.04c-35.09-1.21-64.49,26.24-65.69,61.34-1.22,35.09,26.24,64.51,61.33,65.72,35.08,1.21,64.5-26.26,65.7-61.35C451.83,30.66,424.36,1.25,389.28,.04Z"/><path class="cls-1" d="M460.12,270.28c-14.15-13.63-42.55-23.1-60-10-8.4,6.31-11.65,15.89-13,22-4.76,21.54-8.9,38.03-9,40-.89,18.17-8.74,57.82-37,149-25.67,1-51.33,2-77,3-15.8,2.48-32.84,4.57-51,6-20.68,1.62-40.09,2.17-58,2L5.12,491.28c-1.72,4.53-11.71,31.95,2,54,15.96,25.68,58.8,35.65,98,14,28.33-3.67,56.67-7.33,85-11,14.33,.67,28.67,1.33,43,2,5.56-.54,13.48-1.28,23-2,12.56-.96,54.94-4.18,95-3,1.19,.04,20.97,2.49,46.68,3.93,9.6,.54,19.35,.9,28.32-4.93,7.42-4.82,11.07-11.78,13-16,13.53-29.65,11.02-75.69,11-76-1.22-22.39,.2-54.78,13-96,18.8-31.69,16.32-67.39-3-86Z"/><rect class="cls-1" x="357.12" y="61.28" width="143" height="152" rx="71.5" ry="71.5"/></g><path class="cls-1" d="M7.12,546.28c316.43-23.33,476.1-24.66,479-4,.58,4.12-5.09,9.12-17,15"/></svg>