<?xml version="1.0" encoding="UTF-8"?><svg id="_2" xmlns="http://www.w3.org/2000/svg" viewBox="0 0 512 312.55"><defs><style>.cls-1{fill:#d600ff;}</style></defs><g><path class="cls-1" d="M123.51,282.88h-33.74c-16.6,0-31.53-6.72-42.47-17.64-10.91-10.92-17.61-25.87-17.63-42.46v-61.8H0v61.8c.02,49.54,40.23,89.74,89.77,89.77h40.53v-15.18c-3.85-3.76-6.32-9.03-6.79-14.49Z"/><path class="cls-1" d="M85.93,78.31c21.64,0,39.15-17.51,39.15-39.15S107.57,0,85.93,0,46.78,17.54,46.78,39.15s17.53,39.15,39.15,39.15Z"/><path class="cls-1" d="M145.29,260.93c17.04,.02,34.09,.38,51.12-.21,1.93-.33,3.91-.42,5.87-.25,.33-.02,.65-.03,.98-.05l.66-23.97c0-13.68-11.08-24.75-24.75-24.75h-54.93v-81.76c0-21.17-17.14-38.32-38.31-38.32s-38.3,17.15-38.3,38.32v93.15c0,21.15,17.14,38.31,38.3,38.31,2.02,0,35.78-.1,55.68-.15,1.22-.21,2.45-.32,3.68-.32Z"/><path class="cls-1" d="M482.34,160.98v61.8c-.02,16.59-6.73,31.54-17.63,42.46-10.94,10.92-25.87,17.63-42.46,17.64h-40.54v29.67h40.54c49.53-.04,89.73-40.23,89.76-89.77v-61.79h-29.66Z"/><path class="cls-1" d="M426.07,78.31c21.62,0,39.15-17.51,39.15-39.15S447.69,0,426.07,0s-39.14,17.54-39.14,39.15,17.51,39.15,39.14,39.15Z"/><path class="cls-1" d="M426.07,91.62c-21.17,0-38.31,17.15-38.31,38.32v81.76h-54.93c-13.67,0-24.75,11.07-24.75,24.75l.66,23.89s.07,0,.1,0h40.89c2.23,0,4.34,.4,6.3,1.11l.02-.24s67.15,.2,70.02,.2c21.15,0,38.31-17.15,38.31-38.31v-93.15c0-21.16-17.17-38.32-38.31-38.32Z"/><rect class="cls-1" x="148.87" y="174.15" width="47.73" height="123.53" rx="23.87" ry="23.87" transform="translate(-65 406.14) rotate(-89.39)"/><rect class="cls-1" x="240.48" y="165.29" width="26.89" height="265.62" transform="translate(-45.83 550.08) rotate(-89.63)"/><rect class="cls-1" x="120.93" y="283.58" width="265.62" height="26.89" transform="translate(-3.14 2.71) rotate(-.61)"/><rect class="cls-1" x="318.17" y="174.22" width="47.73" height="123.53" rx="23.87" ry="23.87" transform="translate(102.44 575.51) rotate(-89.39)"/></g><path class="cls-1" d="M255.11,133.88c14.24,0,25.76-11.53,25.76-25.77s-11.52-25.76-25.76-25.76-25.76,11.54-25.76,25.76c0,14.24,11.54,25.77,25.76,25.77Z"/><path class="cls-1" d="M255.11,142.64c-13.91,0-25.2,11.28-25.2,25.2v18.86h50.41v-18.86c0-13.92-11.28-25.2-25.21-25.2Z"/></svg>