<svg id="contents" xmlns="http://www.w3.org/2000/svg" viewBox="0 0 567.72 421.31">
    
    <defs>
    
        <style type="text/css">
            .st0{fill:#4B4B4B;}
        </style>
    </defs>
    
    
    
    <path class="cls-1" d="M266.23,80.03c-.12-.47-17.86-58.71-17.86-58.71-4.5-13.03-11.5-21.32-23.36-21.32H41.94c-11.86,0-19.68,9.41-23.36,21.32L.54,80.75H.54c-.35,1.57-.54,3.21-.54,4.88V398.69c0,12.51,10.23,22.62,22.81,22.62H244.13c12.59,0,22.81-10.11,22.81-22.62V85.63c0-1.56-.71-5.6-.71-5.6ZM36.37,39.65H230.51c.65,1.13,7.49,23.36,7.49,23.36H28.99s6.76-22.39,7.38-23.36ZM245.02,398.69c0,.34-.34,.71-.89,.71H22.81c-.54,0-.89-.36-.89-.71V85.63c0-.29,.34-.7,.89-.7H244.13c.55,0,.89,.41,.89,.7V398.69Z" style="fill: rgb(57, 208, 232);"/>
    <path class="cls-1" d="M567.02,80.03c-.12-.47-17.86-58.71-17.86-58.71-4.5-13.03-11.49-21.32-23.36-21.32h-183.08c-11.86,0-19.68,9.41-23.36,21.32l-18.03,59.43h0c-.35,1.57-.54,3.21-.54,4.88V398.69c0,12.51,10.23,22.62,22.81,22.62h221.32c12.59,0,22.81-10.11,22.81-22.62V85.63c0-1.56-.71-5.6-.71-5.6Zm-229.86-40.39h194.13c.65,1.13,7.49,23.36,7.49,23.36h-209.01s6.76-22.39,7.39-23.36Zm208.65,359.04c0,.34-.34,.71-.89,.71h-221.32c-.53,0-.89-.36-.89-.71V85.63c0-.29,.34-.7,.89-.7h221.32c.55,0,.89,.41,.89,.7V398.69Z" style="fill: rgb(57, 208, 232);"/>
    
    <path class="cls-1" d="M120.09,314.52c-.02-2.86-.03-7.54,0-10.4l.31-42.91c.02-2.86,.04-5.62,.04-6.12s-.92-.87-2.04-.81c-1.12,.06-3.49,1.46-5.26,3.11-1.77,1.65-3.38,3.08-3.58,3.17-.2,.1-2.48,1.16-5.08,2.36,0,0-.29,.13-3.99,.13s-5.79-1.98-6.61-3.16c-1.9-2.72-2.32-8.75-2.32-8.75-.2-2.85-2.18-6.67-4.4-8.47,0,0-11.86-9.64-14.34-13.14-1.82-2.56-3.37-4.89-3.37-4.89-1.59-2.38-4.91-4.58-7.39-4.9-2.47-.32-4.44-1.67-4.36-3,.08-1.33,.23-4.75,.34-7.61,0,0,.16-3.93,.13-6.72-.03-2.79-.01-4.88,.03-4.65,.04,.23,2.39-.39,4.35-2.44,1.96-2.05,4.47-3.17,5.59-2.49l1.68,1.01c11.42,6.91,15.93,10.05,15.93,10.05,2.34,1.64,6.13,1.57,8.4-.16,0,0,.32-.25,2.25-1.77,5.63-4.47,9.22-7.25,12.01-8.18,2.78-.91,7.42-3.16,7.42-3.16,2.57-1.25,4.81-4.61,4.98-7.46,0,0,.28-4.77-.25-7.23-.41-1.91-1.3-3.9-2.08-5.66l-.73-1.63c-.53-1.65-1.71-3.57-2.62-4.27l-.72-.53c-4.92-3.64-9.57-7.08-8.86-11.92,.34-2.32,1.47-5.16,2.56-7.91l.44-1.11c.41-1.13,.91-2.87,1.11-3.85,.2-.98,12.73-16.38,13.59-17.4,.87-1.02,3.46-.46,5.75,1.24l11.49,8.5c2.3,1.7,5.24,5.18,6.53,7.73l3.19,6.29c1.29,2.55,3.31,6.77,4.48,9.38,0,0,4.49,10,.21,13.17-1.53,1.13-3.15,2.87-3.15,2.87-1.95,2.09-3.6,3.84-3.66,3.9-.06,.06-.6,.6-1.2,1.19-.6,.6-1.1,2.36-1.1,3.93s1.29,2.4,2.86,1.86l.47-.27c2.18-1.28,14.69-3.38,14.69-3.38,2.82-.47,7.23-1.9,9.79-3.17l.5-.25c2.57-1.27,5.25-1.79,5.97-1.17,.72,.63,3.06,2.68,5.21,4.57,0,0,9.61,8.45,12.09,12.57,2.12,3.52,4.23,6.48,4.23,6.48,1.66,2.33,3.07,4.31,3.13,4.39,.06,.09,1.17,2.25,2.46,4.8l.07,.14c1.29,2.55,2.25,5.05,2.14,5.55-.12,.5-1.21,3.03-2.42,5.62,0,0-1.49,3.17-8.68,3.17-.77,0-1.59-.06-2.41-.18-.27-.04-.53-.06-.81-.06-3.43,0-4.36,.73-4.36,.73-2.25,1.77-5.25,5.25-6.68,7.73,0,0-.43,.75-5.09,6.2l-1.34,1.57c-1.3,1.61-2.64,3.55-2.98,4.31l-.4,.81c-.88,1.79-2.35,4.78-2.27,6.54,.02,.6,.07,1.2,.11,1.81,.25,3.35,.54,7.15-1.91,9.79-1.24,1.34-2.95,2.08-4.82,2.08-1.6,0-3.25-.54-5.05-1.65-3.69-2.27-5.5-3.49-5.5-3.49-2.37-1.6-5.77-2.73-7.55-2.52-1.78,.22-3.22,2.73-3.19,5.59l.48,54.12c.03,2.86-.27,7.52-.67,10.35l-1.1,7.91c-.39,2.83-.71,7.49-.71,10.35v3.1c0,2.86-1.95,6.49-4.34,8.06l-12.85,8.48c-2.39,1.57-4.36,.52-4.38-2.34l-.38-45.58Zm-5.7-79.39c.43,.55,1.83,1.04,3.11,1.1h2.05c.48,0,.88-.53,.88-1.17s0-3.5-.02-6.36l-.04-10.49c-.01-2.86-2.14-4.63-4.74-3.93l-1.45,.53c-1.54,.58-5.39,3.56-5.39,3.56-2.26,1.75-4.11,4.01-4.11,5.01s.56,2.67,1.25,3.71c.69,1.04,3.94,3.82,6.31,5.43,0,0,.65,.44,1.83,2.14l.33,.47Zm32.42-3.02c.69,.11,2.87-1.48,4.85-3.55,0,0,1.39-1.45,3.01-4.49,2.13-3.96,8.48-11.63,8.48-11.63,1.83-2.2,3.45-4.16,3.61-4.35,.16-.19,.47-.46,.69-.58,.22-.13,.47-.27,.57-.33,.09-.05,.32-1.27,.29-2.56-.03-1.29,.27-5.84,.15-5.96-.12-.12-.58-.23-1.02-.24h-.47c-1.03,0-2.28,.03-3.7,.1-2.16,.1-3.63,.74-3.63,.74-2.63,1.12-6.45,3.69-8.49,5.7l-.54,.53c-2.04,2.01-4.5,3.83-5.47,4.04-.97,.22-1.66,2.73-1.54,5.59l.5,11.4c.12,2.86,2.02,5.49,2.71,5.6Z" style="fill: rgb(57, 208, 232);"/>
    <path class="cls-1" d="M434.26,159.82c-45.49,0-82.35,36.84-82.35,82.34s36.85,82.34,82.35,82.34,82.34-36.85,82.34-82.34-36.86-82.34-82.34-82.34Zm0,156.23c-40.8,0-73.89-33.09-73.89-73.88s33.09-73.89,73.89-73.89,73.89,33.08,73.89,73.89-33.09,73.88-73.89,73.88Z" style="fill: rgb(57, 208, 232);"/>
    <path class="cls-1" d="M434.26,172.5c-38.47,0-69.66,31.2-69.66,69.67s31.19,69.66,69.66,69.66,69.66-31.2,69.66-69.66-31.2-69.67-69.66-69.67Zm61.22,81.6c-.63,3.29-15.32,2.33-21.74,1.16,5.87,2.84,18.32,10.71,16.9,13.74-1.41,3.01-15.4-1.58-21.32-4.29,4.97,4.2,15.08,14.92,12.95,17.5-2.13,2.58-14.52-5.34-19.58-9.46,3.77,5.32,10.88,18.21,8.18,20.18-2.69,1.95-12.75-8.85-16.63-14.07,2.34,6.08,6.05,20.38,2.96,21.6-3.11,1.24-10.15-11.65-12.62-17.69,.76,6.49,.79,21.18-2.52,21.58-3.3,.43-6.92-13.76-7.81-20.24-.89,6.49-4.51,20.68-7.82,20.24-3.31-.4-3.28-15.1-2.52-21.59-2.47,6.04-9.51,18.94-12.62,17.7-3.09-1.22,.62-15.52,2.96-21.6-3.88,5.23-13.93,16.03-16.62,14.07-2.71-1.97,4.39-14.85,8.17-20.18-5.06,4.12-17.46,12.04-19.58,9.45-2.13-2.58,7.97-13.29,12.95-17.49-5.92,2.71-19.9,7.3-21.32,4.29-1.42-3.04,11.04-10.9,16.9-13.74-6.41,1.17-21.1,2.13-21.74-1.16-.61-3.26,13.39-7.78,19.78-9.08-6.5-.47-20.97-3.2-20.76-6.55,.23-3.31,14.89-4.2,21.39-3.85-6.18-2.08-19.49-8.32-18.45-11.51,1.04-3.16,15.48-.37,21.69,1.58-5.46-3.55-16.82-12.93-15.05-15.74,1.8-2.81,15.08,3.48,20.62,6.91-4.42-4.8-13.08-16.69-10.64-18.97,2.43-2.28,13.76,7.16,18.25,11.86-3.08-5.73-8.55-19.45-5.6-21.05,2.91-1.62,11.5,10.29,14.7,15.98-1.56-6.35-3.43-20.94-.19-21.77,3.24-.81,8.59,12.83,10.29,19.16,.06-6.56,1.87-21.12,5.21-21.12s5.15,14.55,5.21,21.11c1.7-6.33,7.06-19.96,10.28-19.15,3.24,.83,1.37,15.42-.19,21.77,3.2-5.69,11.79-17.6,14.7-15.99,2.94,1.6-2.53,15.32-5.61,21.05,4.5-4.69,15.83-14.15,18.26-11.86,2.43,2.28-6.24,14.18-10.65,18.97,5.54-3.43,18.82-9.72,20.62-6.91,1.77,2.81-9.58,12.18-15.04,15.73,6.21-1.95,20.64-4.75,21.68-1.58,1.04,3.19-12.27,9.43-18.45,11.51,6.51-.34,21.16,.54,21.39,3.85,.2,3.34-14.26,6.07-20.77,6.55,6.39,1.29,20.39,5.81,19.78,9.08Z" style="fill: rgb(57, 208, 232);"/>
    <path class="cls-1" d="M434.26,201.27c-23.76,0-43,19.24-43,43s19.24,43.01,43,43.01,43-19.25,43-43.01-19.25-43-43-43Zm0,74.64c-17.48,0-31.64-14.16-31.64-31.64s14.16-31.64,31.64-31.64,31.64,14.16,31.64,31.64-14.16,31.64-31.64,31.64Z" style="fill: rgb(57, 208, 232);"/>
    <path class="cls-1" d="M413.09,244.27c0-11.7,9.47-21.17,21.17-21.17s21.17,9.47,21.17,21.17-9.47,21.17-21.17,21.17-21.17-9.47-21.17-21.17Z" style="fill: rgb(57, 208, 232);"/>


</svg>