<?xml version="1.0" encoding="utf-8"?>
<!-- Generator: Adobe Illustrator 26.4.1, SVG Export Plug-In . SVG Version: 6.00 Build 0)  -->
<svg version="1.1" id="_x32_" xmlns="http://www.w3.org/2000/svg" xmlns:xlink="http://www.w3.org/1999/xlink" x="0px" y="0px"
	 viewBox="0 0 512 512" style="enable-background:new 0 0 512 512;" xml:space="preserve">
<style type="text/css">
	.st0{fill:#D600FF;}
</style>
<g>
	<path class="st0" d="M358.8,4.1c-33.7,9.8-53,45.1-43.2,78.8c9.8,33.7,45.1,53,78.8,43.2c33.7-9.8,53-45.1,43.2-78.8
		C427.8,13.6,392.5-5.7,358.8,4.1z"/>
	<path class="st0" d="M357.7,157c-25.8-1.5-48,18.2-49.4,44l0,0l-8.5,136.3l-103.4,3.3c-23-1-42.6,16.2-44.4,39.1l-0.9,20.2
		c2,3.9,4.1,7.7,6.3,11.4c1.5,2.5,3.4,5,5.2,7.5c4.9,2.6,9.8,5.1,14.8,7.5c5,0.2,10,0.4,15,0.5c7.9-0.2,15.7-0.2,23.6,0.3
		c0.6,0,1.3,0.1,1.9,0.1c0.8,0,1.6,0.1,2.3,0.2c1.7,0.1,3.3,0.3,5,0.5c2.7-0.7,5.6-0.9,8.4-0.4l0-0.1l82,4.8
		c48.8,3.5,73.3-24.1,76.8-72.9l9.4-153C403.3,180.6,383.5,158.5,357.7,157z"/>
	<g>
		<path class="st0" d="M269.5,429.1c19.5-8.5,71.1,5,66.3-25.8c-3.2-39.4,0.4-56.6-43.4-67.5l-153.1-3
			c-25.8-0.4-47.1,20.2-47.5,46.1c-0.4,25.9,20.2,47.2,46,47.5C137.7,426.4,269.5,429.2,269.5,429.1z"/>
	</g>
</g>
</svg>
