<!--?xml version="1.0" encoding="utf-8"?-->
<!-- Generator: Adobe Illustrator 15.1.0, SVG Export Plug-In . SVG Version: 6.00 Build 0)  -->

<svg version="1.1" id="_x32_" xmlns="http://www.w3.org/2000/svg" xmlns:xlink="http://www.w3.org/1999/xlink" x="0px" y="0px" width="512px" height="512px" viewBox="0 0 512 512" style="width: 64px; height: 64px; opacity: 1;" xml:space="preserve">
<style type="text/css">

	.st0{fill:#4B4B4B;}

</style>
<g>
<path xmlns="http://www.w3.org/2000/svg" class="st0" d="M483.149,157.531l-193.953-11.844v-33.594c0-9.781-7.922-17.719-17.703-17.719h-30.984   c-9.797,0-17.703,7.938-17.703,17.719v33.281L28.853,157.531c-15.625,1.078-27.984,13.641-28.813,29.281   c-0.828,15.625,10.141,29.438,25.563,32.156l190.703,34.344c7.359,1.313,12.828,7.531,13.156,15l3.797,84.406   c0.188,4.016-2.375,7.656-6.203,8.844l-53.859,16.719c-8.781,2.719-14.469,11.219-13.625,20.375s7.969,16.469,17.109,17.563   l70.203,5.875v13.25c0,5.031,4.078,9.094,9.109,9.094c5.047,0,9.125-4.063,9.125-9.094v-13.25l70.203-5.875   c9.125-1.094,16.266-8.406,17.109-17.563s-4.844-17.656-13.625-20.375l-53.844-16.719c-3.844-1.188-6.422-4.828-6.219-8.844   l3.781-84.406c0.344-7.469,5.813-13.688,13.156-15l190.719-34.344c15.422-2.719,26.375-16.531,25.563-32.156   C511.134,171.172,498.759,158.609,483.149,157.531z" style="fill: rgb(57, 208, 232);"/>
</g>
</svg>
