<?xml version="1.0" encoding="UTF-8"?><svg id="_2" xmlns="http://www.w3.org/2000/svg" viewBox="0 0 507 523.88"><defs><style>.cls-1{font-family:KozGoPr6N-Regular-90ms-RKSJ-H, 'Kozuka Gothic Pr6N';font-size:12px;}.cls-2{fill:#39d0e8;}</style></defs><g><path class="cls-2" d="M506.98,188.07c-3.37-2.71-6.73-5.42-9.98-8.23-7.92-6.86-15.02-15.25-23.27-21.91l-187.35-11.47v-2.03c-9.42-.33-18.81-1.42-28.2-2.61-10.89,.85-21.78,1.62-32.71,1.3-1.58,.62-3.2,1.14-4.83,1.58v1.45l-181.03,11.38c-6.83,4.85-13.94,9.3-20.76,13.68-6.11,3.92-12.22,7.84-18.28,11.81-.27,1.38-.45,2.8-.52,4.24-.82,15.49,10.04,29.2,25.31,31.9l188.84,34.06c7.29,1.3,12.7,7.47,13.03,14.88l3.76,83.73c.19,3.99-2.36,7.6-6.14,8.77l-53.33,16.59c-8.69,2.7-14.33,11.13-13.49,20.22,.84,9.09,7.89,16.34,16.94,17.42l69.51,5.83v1.1c2.12-.03,4.24-.05,6.35-.07,3.88-.36,7.78-.58,11.69-.64v-.39l69.51-5.83c9.03-1.08,16.11-8.34,16.94-17.42s-4.79-17.52-13.49-20.22l-53.31-16.59c-3.8-1.18-6.36-4.79-6.16-8.77l3.74-83.73c.34-7.41,5.75-13.58,13.03-14.88l188.86-34.06c15-2.65,25.73-15.92,25.34-31.08h0Z"/><text class="cls-1" transform="translate(261.77 10.56)"><tspan x="0" y="0" xml:space="preserve"> .</tspan></text></g><text class="cls-1" transform="translate(261 519.81)"><tspan x="0" y="0">.</tspan></text></svg>