<!--?xml version="1.0" encoding="utf-8"?-->
<!-- Generator: Adobe Illustrator 18.1.1, SVG Export Plug-In . SVG Version: 6.00 Build 0)  -->

<svg version="1.1" id="_x32_" xmlns="http://www.w3.org/2000/svg" xmlns:xlink="http://www.w3.org/1999/xlink" x="0px" y="0px" viewBox="0 0 512 512" style="width: 48px; height: 48px; opacity: 1;" xml:space="preserve">
<style type="text/css">
	.st0{fill:#4B4B4B;}
</style>
<g>
	<path class="st0" d="M479.03,387.686c-0.174-6.933-3.002-13.518-7.894-18.403l-0.947-0.907l-0.113-0.101l-0.114-0.106
		c0,0-0.728-0.62-2.055-1.768c-4.651-4.044-16.601-14.452-29.619-26.082c-6.498-5.812-13.265-11.924-19.51-17.689
		c-6.232-5.752-11.951-11.17-16.281-15.507l-1.014-1.014c-1.834-1.861-3.062-3.603-3.93-5.211c-1.288-2.435-1.815-4.637-1.962-6.866
		c-0.14-2.202,0.154-4.417,0.7-6.412c2.622-9.715,6.926-22.5,10.617-37.466c5.531-22.473,9.661-50.158,4.43-81.224
		c-2.609-15.52-7.567-31.848-15.707-48.656c-8.147-16.815-19.464-34.097-34.73-51.645c-3.236-3.723-6.586-7.32-10.049-10.776
		C316.409,23.416,271.484,2.338,224.57,0.182c-23.44-1.081-47.354,2.616-70.454,11.704c-23.1,9.068-45.346,23.528-65.544,43.732
		c-20.204,20.197-34.656,42.443-43.738,65.544c-13.632,34.656-15.093,71.108-6.62,105.131c8.468,34.056,26.756,65.77,52.593,91.606
		c3.463,3.463,7.052,6.813,10.776,10.048c23.387,20.358,46.334,33.696,68.273,41.843c16.461,6.113,32.322,9.302,47.268,10.463
		c22.433,1.762,42.757-1.014,60.252-4.951c8.748-1.962,16.801-4.217,24.048-6.346c7.239-2.135,13.699-4.144,19.15-5.625
		c2.669-0.721,5.685-1.001,8.641-0.4c1.501,0.294,3.016,0.808,4.63,1.675c1.622,0.861,3.356,2.089,5.211,3.924l1.021,1.014
		c4.951,4.951,11.317,11.704,17.996,18.983c10.029,10.93,20.811,23.074,29.072,32.462c4.13,4.698,7.633,8.708,10.095,11.543
		c1.234,1.422,2.209,2.536,2.876,3.303c0.661,0.767,1.008,1.174,1.008,1.174l0.1,0.107l0.094,0.113l0.921,0.955
		c4.884,4.884,11.47,7.72,18.402,7.894l0.728,0.02l-0.721-0.02c7.373,0.18,14.506-2.67,19.724-7.887l30.773-30.774
		c5.218-5.218,8.06-12.351,7.887-19.724l0.014,0.46L479.03,387.686z M453.656,389.928l-30.767,30.773l-1.634,0.654l-1.542-0.654
		l-0.007-0.007c-1.221-1.421-10.996-12.704-23.053-26.283c-6.446-7.253-13.545-15.173-20.364-22.6
		c-6.819-7.433-13.332-14.359-18.723-19.757l-1.128-1.114c-3.443-3.41-7.146-6.125-10.936-8.153
		c-5.705-3.05-11.584-4.504-16.962-4.832c-5.391-0.333-10.282,0.388-14.445,1.522c-10.837,2.943-23.087,7.08-36.899,10.469
		c-16.495,4.05-35.031,7.04-55.308,5.838L388.712,188.96c1.067,18.129-1.181,34.904-4.578,50.043
		c-1.794,7.961-3.883,15.474-5.951,22.486c-2.062,7.026-4.09,13.546-5.758,19.657c-1.501,5.532-2.296,12.418-0.794,19.957
		c0.754,3.757,2.082,7.646,4.11,11.436c2.022,3.804,4.744,7.5,8.147,10.943l1.128,1.12c5.391,5.398,12.324,11.911,19.75,18.736
		c21.358,19.597,46.8,41.623,48.882,43.418l0.007,0.007l0.654,1.534L453.656,389.928z" style="fill: rgb(255, 255, 255);"></path>
	<path class="st0" d="M146.609,400.29c-30.853,0.007-55.849,25.002-55.855,55.855c0.006,30.853,25.002,55.848,55.855,55.855
		c30.853-0.007,55.848-25.002,55.855-55.855C202.457,425.292,177.462,400.297,146.609,400.29z M168.714,478.251
		c-5.698,5.671-13.432,9.147-22.106,9.154c-8.674-0.007-16.414-3.483-22.106-9.154c-5.672-5.698-9.148-13.432-9.154-22.106
		c0.007-8.674,3.482-16.414,9.154-22.106c5.692-5.678,13.432-9.148,22.106-9.154c8.674,0.007,16.407,3.476,22.106,9.154
		c5.672,5.692,9.148,13.432,9.155,22.106C177.862,464.819,174.386,472.553,168.714,478.251z" style="fill: rgb(255, 255, 255);"></path>
</g>
</svg>
